<svg id="Layer_1" data-name="Layer 1" xmlns="http://www.w3.org/2000/svg" viewBox="0 0 171.57 89.87"><defs><style>.cls-1{opacity:0;}.cls-2{fill:#ca2127;}</style></defs><g class="cls-1"><path class="cls-2" d="M71.21,18.59a35.57,35.57,0,1,1-50.31,0,35.56,35.56,0,0,1,50.31,0"/></g><path class="cls-2" d="M46.05,80.55a36.82,36.82,0,1,1,26-62.84h0a36.81,36.81,0,0,1-26,62.84Zm0-71.12a34.32,34.32,0,1,0,24.28,10h0A34.19,34.19,0,0,0,46.05,9.43Z"/><g class="cls-1"><line class="cls-2" x1="21.11" y1="68.69" x2="70.99" y2="18.8"/></g><rect class="cls-2" x="10.78" y="42.5" width="70.54" height="2.49" transform="translate(-17.44 45.38) rotate(-45)"/><rect class="cls-2" x="69.75" y="18.8" width="2.49" height="49.88"/><path class="cls-2" d="M128.38,60.46v3.8a19.52,19.52,0,0,1-2.46,1.55,9,9,0,0,1-1.89.7,3.79,3.79,0,0,1-.81.17,7.9,7.9,0,0,1-.88,0,5.94,5.94,0,0,1-3.2-.74,3.77,3.77,0,0,1-1.58-2.43,15,15,0,0,1-4.19,2.4,12.79,12.79,0,0,1-4.32.77,7.24,7.24,0,0,1-5.59-2.32,7.66,7.66,0,0,1-2.15-5.35q0-4.21,2.88-6.18a29,29,0,0,1,6.33-3.24l.81-.28.74-.28,5.56-2V45.34a5.45,5.45,0,0,0-1.41-4.18,6.13,6.13,0,0,0-4.29-1.3c-.24,0-.46,0-.67,0a4.22,4.22,0,0,1-.6,0,12,12,0,0,0-4.53,1.54,16.05,16.05,0,0,0-4.19,3.59V38.17A11.58,11.58,0,0,1,106.37,35a16.1,16.1,0,0,1,6-1,13.12,13.12,0,0,1,8.12,2.5q3.34,2.49,3.34,7.91V60.53a2.08,2.08,0,0,0,.32,1.34,1.13,1.13,0,0,0,.88.35,3.23,3.23,0,0,0,1.37-.46,13.77,13.77,0,0,0,1.93-1.23Zm-10.75-.77V50.48a47.06,47.06,0,0,0-7,3c-2,1.08-3,2.55-3,4.43a4.25,4.25,0,0,0,1.27,3.2,4.44,4.44,0,0,0,3.23,1.23,6.16,6.16,0,0,0,2.85-.7,11.69,11.69,0,0,0,2.64-1.9Z"/><path class="cls-2" d="M141.25,34.51h10v5.63h-10V56.31a4.75,4.75,0,0,0,.95,3.24,4.6,4.6,0,0,0,2.15,1.4,2.19,2.19,0,0,0,.7.18c.23,0,.47,0,.7,0a10.6,10.6,0,0,0,3.45-.59,20,20,0,0,0,3.66-1.73v5.77a8.68,8.68,0,0,1-1.73.84c-.63.24-1.25.45-1.86.64s-1.48.34-2.18.45a11,11,0,0,1-1.83.18q-5.13,0-7.7-2.78A10,10,0,0,1,135,56.87V40.14h-5.48v-.71L141.25,28Z"/><path class="cls-2" d="M164.39,25a3.71,3.71,0,0,1-1.09,2.71A3.74,3.74,0,1,1,164.39,25Zm-.64,41.14H157.5V34.51h6.25Z"/></svg>